# xmcd
#
# Track frame offsets:
#	150
#	5514
#	14553
#	23327
#	32312
#	41347
#	60221
#	68067
#	78138
#	84028
#	93078
#	104601
#
# Disc length: 1580 seconds
#
# Revision: 0
# Processed by: cddbd v1.5.2PL0 Copyright (c) Steve Scherf et al.
# Submitted via: EasyCDDAExtractor 16.0.8.2
#
DISCID=6e062a0c
DTITLE=Άνευ ερμηνευτού - Μίκης Θεοδωράκης 1 Zorba the Greek
DYEAR=2004
DGENRE=Κινηματογραφική
TTITLE0=Κρητικός χορός [theme ''Zorba the Greek'']
TTITLE1=Συρτός χανιώτικος [the full catastrophe]
TTITLE2=Madame Hortense [life goes on]
TTITLE3=Μπάλος [the one unforgivable sin]
TTITLE4=Χασάπικος [questions without answers]
TTITLE5=Χορός του Ζορμπά [Zorba's dance]
TTITLE6=Συρτός χανιώτικος [the fire inside]
TTITLE7=Θάνατος της χήρας [clever people and grocers]
TTITLE8=Συρτός χανιώτικος [always look for trouble]
TTITLE9=Madame Hortense (reprice) [life goes on (reprice)]
TTITLE10=Πότε θα κάνει ξαστεριά [κρητικό δημώδες, free]
TTITLE11=Χορός του Ζορμπά [that's me Zorba!]
EXTD=
EXTT0=
EXTT1=
EXTT2=
EXTT3=
EXTT4=
EXTT5=
EXTT6=
EXTT7=
EXTT8=
EXTT9=
EXTT10=
EXTT11=
PLAYORDER=
